<svg width="175" height="107" viewBox="0 0 175 107" fill="none" xmlns="http://www.w3.org/2000/svg">
<path d="M11.088 42.396C8.77067 42.396 6.76133 42.1027 5.06 41.516C3.388 40.9293 1.87733 40.064 0.528 38.92C1.232 37.5707 1.78933 36.2653 2.2 35.004C2.64 33.7133 2.96267 32.3053 3.168 30.78L4.664 30.824C4.25333 32.056 4.048 33.332 4.048 34.652C4.048 36.7347 4.73733 38.3333 6.116 39.448C7.524 40.5627 9.31333 41.12 11.484 41.12C12.892 41.12 14.212 40.8707 15.444 40.372C16.676 39.844 17.6587 39.0813 18.392 38.084C19.1547 37.0867 19.536 35.884 19.536 34.476C19.536 33.596 19.3453 32.848 18.964 32.232C18.5827 31.616 18.0107 31.0733 17.248 30.604C16.4853 30.1053 15.3853 29.5187 13.948 28.844C11.8947 27.8467 10.296 26.7907 9.152 25.676C8.03733 24.532 7.48 22.992 7.48 21.056C7.48 19.2373 8.052 17.6387 9.196 16.26C10.34 14.852 11.836 13.7813 13.684 13.048C15.532 12.2853 17.4387 11.904 19.404 11.904C20.5187 11.904 21.6333 12.036 22.748 12.3C23.892 12.5347 24.9187 12.9013 25.828 13.4C25.9747 13.488 26.224 13.6347 26.576 13.84C26.928 14.016 27.2507 14.1627 27.544 14.28C27.8373 14.368 28.1013 14.412 28.336 14.412C28.6587 14.412 29.0253 14.368 29.436 14.28L29.612 14.456C28.8493 15.424 28.3067 16.48 27.984 17.624C27.6907 18.768 27.4853 20.1613 27.368 21.804H26.136C26.1653 21.5693 26.18 21.232 26.18 20.792C26.18 18.3867 25.5053 16.524 24.156 15.204C22.836 13.884 21.0907 13.224 18.92 13.224C17.6293 13.224 16.4413 13.488 15.356 14.016C14.2707 14.5147 13.3907 15.248 12.716 16.216C12.0707 17.184 11.748 18.3133 11.748 19.604C11.748 20.4253 11.9827 21.1293 12.452 21.716C12.9213 22.3027 13.4933 22.8013 14.168 23.212C14.8427 23.5933 15.8253 24.092 17.116 24.708C18.4947 25.3533 19.6387 25.9693 20.548 26.556C21.4573 27.1133 22.2493 27.876 22.924 28.844C23.5987 29.7827 23.936 30.9267 23.936 32.276C23.936 34.4173 23.3347 36.2507 22.132 37.776C20.9293 39.3013 19.3453 40.46 17.38 41.252C15.4147 42.0147 13.3173 42.396 11.088 42.396ZM31.4335 42.352C30.7002 42.352 30.1135 42.1467 29.6735 41.736C29.2335 41.3253 29.0135 40.7827 29.0135 40.108C29.0135 39.756 29.1015 39.36 29.2775 38.92L34.0295 26.864C34.2055 26.4827 34.2935 26.116 34.2935 25.764C34.2935 25.3827 34.1762 25.192 33.9415 25.192C33.5015 25.192 32.7682 25.764 31.7415 26.908C30.7149 28.052 29.7615 29.284 28.8815 30.604L28.0895 30.12C30.0255 27.3333 31.5949 25.3533 32.7975 24.18C34.0295 23.0067 35.2175 22.42 36.3615 22.42C37.0655 22.42 37.6082 22.6107 37.9895 22.992C38.3709 23.344 38.5615 23.8573 38.5615 24.532C38.5615 25.0893 38.4442 25.6467 38.2095 26.204L33.6335 37.688C33.4575 38.128 33.3695 38.48 33.3695 38.744C33.3695 39.008 33.4282 39.2133 33.5455 39.36C33.6629 39.4773 33.8095 39.536 33.9855 39.536C34.3962 39.536 35.1149 38.9787 36.1415 37.864C37.1975 36.7493 38.1655 35.5027 39.0455 34.124L39.8815 34.652C38.0042 37.3507 36.3909 39.316 35.0415 40.548C33.7215 41.7507 32.5189 42.352 31.4335 42.352ZM39.5735 17.624C38.7815 17.624 38.0922 17.3307 37.5055 16.744C36.9189 16.1573 36.6255 15.468 36.6255 14.676C36.6255 13.8547 36.9189 13.1507 37.5055 12.564C38.0922 11.948 38.7815 11.64 39.5735 11.64C40.3949 11.64 41.0989 11.9333 41.6855 12.52C42.3015 13.1067 42.6095 13.8253 42.6095 14.676C42.6095 15.468 42.3015 16.1573 41.6855 16.744C41.0989 17.3307 40.3949 17.624 39.5735 17.624ZM47.9535 26.776C48.1001 26.2773 48.1735 25.94 48.1735 25.764C48.1735 25.3827 48.0561 25.192 47.8215 25.192C47.3815 25.192 46.6335 25.7787 45.5775 26.952C44.5215 28.096 43.5681 29.328 42.7175 30.648L41.9255 30.12C43.8028 27.4213 45.3721 25.4707 46.6335 24.268C47.8948 23.0653 49.0681 22.464 50.1535 22.464C50.8575 22.464 51.4001 22.6547 51.7815 23.036C52.1921 23.388 52.3975 23.8867 52.3975 24.532C52.3975 25.0307 52.2655 25.588 52.0015 26.204L48.7895 33.904H48.9215C50.7108 30.9707 52.7348 28.3307 54.9935 25.984C57.2521 23.608 59.4521 22.42 61.5935 22.42C62.2975 22.42 62.8401 22.6107 63.2215 22.992C63.6321 23.3733 63.8375 23.8867 63.8375 24.532C63.8375 25.0307 63.7055 25.588 63.4415 26.204L58.4255 37.864C58.2788 38.1867 58.2055 38.5093 58.2055 38.832C58.2055 39.3013 58.4108 39.536 58.8215 39.536C59.2615 39.536 59.9801 38.9933 60.9775 37.908C62.0041 36.7933 62.9868 35.532 63.9255 34.124L64.7175 34.652C62.8695 37.3213 61.2708 39.272 59.9215 40.504C58.5721 41.736 57.3695 42.352 56.3135 42.352C55.5801 42.352 54.9935 42.1613 54.5535 41.78C54.1428 41.3987 53.9375 40.8707 53.9375 40.196C53.9375 39.7267 54.0841 39.1253 54.3775 38.392L59.1295 27.26C59.2761 26.9667 59.3495 26.6587 59.3495 26.336C59.3495 25.7493 59.1295 25.456 58.6895 25.456C57.9268 25.456 56.7095 26.248 55.0375 27.832C53.3948 29.3867 51.7081 31.44 49.9775 33.992C48.2468 36.544 46.8535 39.2133 45.7975 42L41.6615 42.484L47.9535 26.776ZM87.8711 18.46C88.4578 18.46 88.8978 18.636 89.1911 18.988C89.5138 19.34 89.6751 19.7947 89.6751 20.352C89.6751 21.056 89.4551 21.804 89.0151 22.596C88.6044 23.388 88.0031 24.048 87.2111 24.576C86.4484 25.104 85.5831 25.368 84.6151 25.368C83.9991 25.368 83.4418 25.2213 82.9431 24.928L82.8551 25.192C83.5591 25.896 83.9111 26.908 83.9111 28.228C83.9111 29.548 83.5444 30.8827 82.8111 32.232C82.0778 33.5813 81.0218 34.7107 79.6431 35.62C78.2644 36.5293 76.6658 36.984 74.8471 36.984C74.5538 36.984 74.3338 36.9693 74.1871 36.94C72.7204 36.9987 71.5178 37.1747 70.5791 37.468C69.6698 37.732 69.2151 38.1133 69.2151 38.612C69.2151 38.876 69.3031 39.096 69.4791 39.272C69.6844 39.448 70.0804 39.6387 70.6671 39.844C71.2831 40.02 72.2071 40.2253 73.4391 40.46C75.5511 39.9907 78.2351 39.5213 81.4911 39.052L81.6231 39.932C79.5111 40.3133 77.7658 40.68 76.3871 41.032C78.9978 41.56 80.8458 42.2053 81.9311 42.968C83.0458 43.7307 83.6031 44.728 83.6031 45.96C83.6031 47.3387 82.9431 48.6 81.6231 49.744C80.3324 50.888 78.5724 51.7827 76.3431 52.428C74.1138 53.0733 71.6791 53.396 69.0391 53.396C66.7804 53.396 64.8738 52.9707 63.3191 52.12C61.7351 51.2987 60.9431 50.1693 60.9431 48.732C60.9431 46.004 63.2458 43.892 67.8511 42.396C66.9418 42.0147 66.2818 41.604 65.8711 41.164C65.4604 40.6947 65.2551 40.1373 65.2551 39.492C65.2551 38.7587 65.8418 38.0987 67.0151 37.512C68.2178 36.9253 69.7871 36.5293 71.7231 36.324C70.8138 35.884 70.0951 35.2827 69.5671 34.52C69.0391 33.728 68.7751 32.7893 68.7751 31.704C68.7751 30.296 69.1271 28.8733 69.8311 27.436C70.5644 25.9987 71.6204 24.8107 72.9991 23.872C74.3778 22.904 76.0204 22.42 77.9271 22.42C78.5431 22.42 79.1151 22.4933 79.6431 22.64C80.1711 22.7573 80.8311 22.9333 81.6231 23.168C81.7991 23.2267 82.1951 23.3587 82.8111 23.564C83.4271 23.7693 83.9844 23.872 84.4831 23.872C84.9818 23.872 85.3778 23.7547 85.6711 23.52C85.9644 23.2853 86.1111 22.9187 86.1111 22.42C86.1111 22.2733 86.0524 22.0387 85.9351 21.716C85.8471 21.364 85.8031 21.1 85.8031 20.924C85.8031 20.132 85.9938 19.5307 86.3751 19.12C86.7858 18.68 87.2844 18.46 87.8711 18.46ZM74.6711 35.664C75.6684 35.664 76.6218 35.2093 77.5311 34.3C78.4404 33.3907 79.1738 32.2613 79.7311 30.912C80.2884 29.5333 80.5671 28.184 80.5671 26.864C80.5671 25.8373 80.3324 24.928 79.8631 24.136C79.4524 23.8133 78.8804 23.652 78.1471 23.652C77.1204 23.652 76.1524 24.136 75.2431 25.104C74.3338 26.0427 73.6004 27.216 73.0431 28.624C72.5151 30.0027 72.2511 31.2787 72.2511 32.452C72.2511 34.5933 73.0578 35.664 74.6711 35.664ZM79.5991 47.28C79.5991 46.7227 79.4231 46.2387 79.0711 45.828C78.7191 45.4467 78.0591 45.08 77.0911 44.728C76.1231 44.4053 74.7004 44.068 72.8231 43.716C71.6204 43.4813 70.6231 43.2613 69.8311 43.056C66.4578 44.3467 64.7711 46.092 64.7711 48.292C64.7711 49.436 65.2991 50.2867 66.3551 50.844C67.4111 51.4307 68.7751 51.724 70.4471 51.724C73.1458 51.724 75.3458 51.3133 77.0471 50.492C78.7484 49.6707 79.5991 48.6 79.5991 47.28ZM101.204 42.352C100.5 42.352 99.9578 42.1613 99.5765 41.78C99.1951 41.3693 99.0045 40.8413 99.0045 40.196C99.0045 39.6973 99.1365 39.14 99.4005 38.524L104.416 26.864C104.563 26.5413 104.636 26.2333 104.636 25.94C104.636 25.4707 104.431 25.236 104.02 25.236C103.58 25.236 102.847 25.7933 101.82 26.908C100.823 27.9933 99.8551 29.24 98.9165 30.648L98.1245 30.12C99.9725 27.4507 101.556 25.5147 102.876 24.312C104.226 23.08 105.443 22.464 106.528 22.464C107.262 22.464 107.834 22.6547 108.244 23.036C108.684 23.4173 108.904 23.9307 108.904 24.576C108.904 25.016 108.758 25.6027 108.464 26.336L103.668 37.512C103.492 37.864 103.404 38.172 103.404 38.436C103.404 38.9347 103.668 39.184 104.196 39.184C104.93 39.184 106.088 38.4067 107.672 36.852C109.286 35.2973 110.928 33.2587 112.6 30.736C114.272 28.184 115.636 25.5293 116.692 22.772L120.784 22.332L114.536 38.04C114.36 38.48 114.272 38.8027 114.272 39.008C114.272 39.3893 114.39 39.58 114.624 39.58C115.064 39.58 115.812 39.008 116.868 37.864C117.924 36.6907 118.878 35.4587 119.728 34.168L120.564 34.652C118.658 37.38 117.074 39.3453 115.812 40.548C114.58 41.7507 113.407 42.352 112.292 42.352C111.618 42.352 111.075 42.176 110.664 41.824C110.283 41.4427 110.092 40.9293 110.092 40.284C110.092 39.756 110.224 39.184 110.488 38.568L113.7 30.868H113.568C111.808 33.772 109.814 36.412 107.584 38.788C105.355 41.164 103.228 42.352 101.204 42.352ZM140.833 22.376C141.742 22.376 142.475 22.6693 143.033 23.256C143.59 23.8133 143.869 24.6787 143.869 25.852C143.869 27.9347 143.253 30.2227 142.021 32.716C140.818 35.18 139.263 37.2627 137.357 38.964C135.45 40.636 133.529 41.472 131.593 41.472C129.657 41.472 128.249 41.032 127.369 40.152L123.277 50.316C123.189 50.5507 123.145 50.7413 123.145 50.888C123.145 51.2987 123.438 51.592 124.025 51.768L126.005 52.296L125.697 53H115.577L115.885 52.296L117.557 51.768C118.055 51.6213 118.451 51.416 118.745 51.152C119.038 50.9173 119.273 50.58 119.449 50.14L128.073 28.712C126.518 29.944 124.817 30.9707 122.969 31.792L122.441 30.956C124.171 30.0173 125.594 29.0493 126.709 28.052C127.823 27.0253 128.689 26.0427 129.305 25.104C129.921 24.1653 130.61 22.9773 131.373 21.54C131.461 21.3347 131.622 21.0267 131.857 20.616C132.15 20.1173 132.693 19.868 133.485 19.868C133.866 19.868 134.174 19.9413 134.409 20.088C134.673 20.2053 134.761 20.3813 134.673 20.616C134.585 20.88 134.453 21.2027 134.277 21.584L131.417 28.404H131.593C132.913 26.644 134.438 25.2067 136.169 24.092C137.899 22.948 139.454 22.376 140.833 22.376ZM131.945 40.24C133.177 40.24 134.379 39.5653 135.553 38.216C136.755 36.8667 137.723 35.2093 138.457 33.244C139.219 31.2493 139.601 29.3867 139.601 27.656C139.601 26.0427 138.955 25.236 137.665 25.236C136.902 25.236 136.007 25.676 134.981 26.556C133.983 27.436 133.015 28.58 132.077 29.988C131.138 31.3667 130.375 32.76 129.789 34.168L128.997 36.192C129.525 36.2507 129.935 36.5147 130.229 36.984C130.551 37.424 130.713 38.084 130.713 38.964C130.713 39.404 130.801 39.7267 130.977 39.932C131.153 40.1373 131.475 40.24 131.945 40.24Z" fill="#FF1B43"/>
<path opacity="0.1" d="M11.088 59.396C8.77067 59.396 6.76133 59.1027 5.06 58.516C3.388 57.9293 1.87733 57.064 0.528 55.92C1.232 54.5707 1.78933 53.2653 2.2 52.004C2.64 50.7133 2.96267 49.3053 3.168 47.78L4.664 47.824C4.25333 49.056 4.048 50.332 4.048 51.652C4.048 53.7347 4.73733 55.3333 6.116 56.448C7.524 57.5627 9.31333 58.12 11.484 58.12C12.892 58.12 14.212 57.8707 15.444 57.372C16.676 56.844 17.6587 56.0813 18.392 55.084C19.1547 54.0867 19.536 52.884 19.536 51.476C19.536 50.596 19.3453 49.848 18.964 49.232C18.5827 48.616 18.0107 48.0733 17.248 47.604C16.4853 47.1053 15.3853 46.5187 13.948 45.844C11.8947 44.8467 10.296 43.7907 9.152 42.676C8.03733 41.532 7.48 39.992 7.48 38.056C7.48 36.2373 8.052 34.6387 9.196 33.26C10.34 31.852 11.836 30.7813 13.684 30.048C15.532 29.2853 17.4387 28.904 19.404 28.904C20.5187 28.904 21.6333 29.036 22.748 29.3C23.892 29.5347 24.9187 29.9013 25.828 30.4C25.9747 30.488 26.224 30.6347 26.576 30.84C26.928 31.016 27.2507 31.1627 27.544 31.28C27.8373 31.368 28.1013 31.412 28.336 31.412C28.6587 31.412 29.0253 31.368 29.436 31.28L29.612 31.456C28.8493 32.424 28.3067 33.48 27.984 34.624C27.6907 35.768 27.4853 37.1613 27.368 38.804H26.136C26.1653 38.5693 26.18 38.232 26.18 37.792C26.18 35.3867 25.5053 33.524 24.156 32.204C22.836 30.884 21.0907 30.224 18.92 30.224C17.6293 30.224 16.4413 30.488 15.356 31.016C14.2707 31.5147 13.3907 32.248 12.716 33.216C12.0707 34.184 11.748 35.3133 11.748 36.604C11.748 37.4253 11.9827 38.1293 12.452 38.716C12.9213 39.3027 13.4933 39.8013 14.168 40.212C14.8427 40.5933 15.8253 41.092 17.116 41.708C18.4947 42.3533 19.6387 42.9693 20.548 43.556C21.4573 44.1133 22.2493 44.876 22.924 45.844C23.5987 46.7827 23.936 47.9267 23.936 49.276C23.936 51.4173 23.3347 53.2507 22.132 54.776C20.9293 56.3013 19.3453 57.46 17.38 58.252C15.4147 59.0147 13.3173 59.396 11.088 59.396ZM31.4335 59.352C30.7002 59.352 30.1135 59.1467 29.6735 58.736C29.2335 58.3253 29.0135 57.7827 29.0135 57.108C29.0135 56.756 29.1015 56.36 29.2775 55.92L34.0295 43.864C34.2055 43.4827 34.2935 43.116 34.2935 42.764C34.2935 42.3827 34.1762 42.192 33.9415 42.192C33.5015 42.192 32.7682 42.764 31.7415 43.908C30.7149 45.052 29.7615 46.284 28.8815 47.604L28.0895 47.12C30.0255 44.3333 31.5949 42.3533 32.7975 41.18C34.0295 40.0067 35.2175 39.42 36.3615 39.42C37.0655 39.42 37.6082 39.6107 37.9895 39.992C38.3709 40.344 38.5615 40.8573 38.5615 41.532C38.5615 42.0893 38.4442 42.6467 38.2095 43.204L33.6335 54.688C33.4575 55.128 33.3695 55.48 33.3695 55.744C33.3695 56.008 33.4282 56.2133 33.5455 56.36C33.6629 56.4773 33.8095 56.536 33.9855 56.536C34.3962 56.536 35.1149 55.9787 36.1415 54.864C37.1975 53.7493 38.1655 52.5027 39.0455 51.124L39.8815 51.652C38.0042 54.3507 36.3909 56.316 35.0415 57.548C33.7215 58.7507 32.5189 59.352 31.4335 59.352ZM39.5735 34.624C38.7815 34.624 38.0922 34.3307 37.5055 33.744C36.9189 33.1573 36.6255 32.468 36.6255 31.676C36.6255 30.8547 36.9189 30.1507 37.5055 29.564C38.0922 28.948 38.7815 28.64 39.5735 28.64C40.3949 28.64 41.0989 28.9333 41.6855 29.52C42.3015 30.1067 42.6095 30.8253 42.6095 31.676C42.6095 32.468 42.3015 33.1573 41.6855 33.744C41.0989 34.3307 40.3949 34.624 39.5735 34.624ZM47.9535 43.776C48.1001 43.2773 48.1735 42.94 48.1735 42.764C48.1735 42.3827 48.0561 42.192 47.8215 42.192C47.3815 42.192 46.6335 42.7787 45.5775 43.952C44.5215 45.096 43.5681 46.328 42.7175 47.648L41.9255 47.12C43.8028 44.4213 45.3721 42.4707 46.6335 41.268C47.8948 40.0653 49.0681 39.464 50.1535 39.464C50.8575 39.464 51.4001 39.6547 51.7815 40.036C52.1921 40.388 52.3975 40.8867 52.3975 41.532C52.3975 42.0307 52.2655 42.588 52.0015 43.204L48.7895 50.904H48.9215C50.7108 47.9707 52.7348 45.3307 54.9935 42.984C57.2521 40.608 59.4521 39.42 61.5935 39.42C62.2975 39.42 62.8401 39.6107 63.2215 39.992C63.6321 40.3733 63.8375 40.8867 63.8375 41.532C63.8375 42.0307 63.7055 42.588 63.4415 43.204L58.4255 54.864C58.2788 55.1867 58.2055 55.5093 58.2055 55.832C58.2055 56.3013 58.4108 56.536 58.8215 56.536C59.2615 56.536 59.9801 55.9933 60.9775 54.908C62.0041 53.7933 62.9868 52.532 63.9255 51.124L64.7175 51.652C62.8695 54.3213 61.2708 56.272 59.9215 57.504C58.5721 58.736 57.3695 59.352 56.3135 59.352C55.5801 59.352 54.9935 59.1613 54.5535 58.78C54.1428 58.3987 53.9375 57.8707 53.9375 57.196C53.9375 56.7267 54.0841 56.1253 54.3775 55.392L59.1295 44.26C59.2761 43.9667 59.3495 43.6587 59.3495 43.336C59.3495 42.7493 59.1295 42.456 58.6895 42.456C57.9268 42.456 56.7095 43.248 55.0375 44.832C53.3948 46.3867 51.7081 48.44 49.9775 50.992C48.2468 53.544 46.8535 56.2133 45.7975 59L41.6615 59.484L47.9535 43.776ZM87.8711 35.46C88.4578 35.46 88.8978 35.636 89.1911 35.988C89.5138 36.34 89.6751 36.7947 89.6751 37.352C89.6751 38.056 89.4551 38.804 89.0151 39.596C88.6044 40.388 88.0031 41.048 87.2111 41.576C86.4484 42.104 85.5831 42.368 84.6151 42.368C83.9991 42.368 83.4418 42.2213 82.9431 41.928L82.8551 42.192C83.5591 42.896 83.9111 43.908 83.9111 45.228C83.9111 46.548 83.5444 47.8827 82.8111 49.232C82.0778 50.5813 81.0218 51.7107 79.6431 52.62C78.2644 53.5293 76.6658 53.984 74.8471 53.984C74.5538 53.984 74.3338 53.9693 74.1871 53.94C72.7204 53.9987 71.5178 54.1747 70.5791 54.468C69.6698 54.732 69.2151 55.1133 69.2151 55.612C69.2151 55.876 69.3031 56.096 69.4791 56.272C69.6844 56.448 70.0804 56.6387 70.6671 56.844C71.2831 57.02 72.2071 57.2253 73.4391 57.46C75.5511 56.9907 78.2351 56.5213 81.4911 56.052L81.6231 56.932C79.5111 57.3133 77.7658 57.68 76.3871 58.032C78.9978 58.56 80.8458 59.2053 81.9311 59.968C83.0458 60.7307 83.6031 61.728 83.6031 62.96C83.6031 64.3387 82.9431 65.6 81.6231 66.744C80.3324 67.888 78.5724 68.7827 76.3431 69.428C74.1138 70.0733 71.6791 70.396 69.0391 70.396C66.7804 70.396 64.8738 69.9707 63.3191 69.12C61.7351 68.2987 60.9431 67.1693 60.9431 65.732C60.9431 63.004 63.2458 60.892 67.8511 59.396C66.9418 59.0147 66.2818 58.604 65.8711 58.164C65.4604 57.6947 65.2551 57.1373 65.2551 56.492C65.2551 55.7587 65.8418 55.0987 67.0151 54.512C68.2178 53.9253 69.7871 53.5293 71.7231 53.324C70.8138 52.884 70.0951 52.2827 69.5671 51.52C69.0391 50.728 68.7751 49.7893 68.7751 48.704C68.7751 47.296 69.1271 45.8733 69.8311 44.436C70.5644 42.9987 71.6204 41.8107 72.9991 40.872C74.3778 39.904 76.0204 39.42 77.9271 39.42C78.5431 39.42 79.1151 39.4933 79.6431 39.64C80.1711 39.7573 80.8311 39.9333 81.6231 40.168C81.7991 40.2267 82.1951 40.3587 82.8111 40.564C83.4271 40.7693 83.9844 40.872 84.4831 40.872C84.9818 40.872 85.3778 40.7547 85.6711 40.52C85.9644 40.2853 86.1111 39.9187 86.1111 39.42C86.1111 39.2733 86.0524 39.0387 85.9351 38.716C85.8471 38.364 85.8031 38.1 85.8031 37.924C85.8031 37.132 85.9938 36.5307 86.3751 36.12C86.7858 35.68 87.2844 35.46 87.8711 35.46ZM74.6711 52.664C75.6684 52.664 76.6218 52.2093 77.5311 51.3C78.4404 50.3907 79.1738 49.2613 79.7311 47.912C80.2884 46.5333 80.5671 45.184 80.5671 43.864C80.5671 42.8373 80.3324 41.928 79.8631 41.136C79.4524 40.8133 78.8804 40.652 78.1471 40.652C77.1204 40.652 76.1524 41.136 75.2431 42.104C74.3338 43.0427 73.6004 44.216 73.0431 45.624C72.5151 47.0027 72.2511 48.2787 72.2511 49.452C72.2511 51.5933 73.0578 52.664 74.6711 52.664ZM79.5991 64.28C79.5991 63.7227 79.4231 63.2387 79.0711 62.828C78.7191 62.4467 78.0591 62.08 77.0911 61.728C76.1231 61.4053 74.7004 61.068 72.8231 60.716C71.6204 60.4813 70.6231 60.2613 69.8311 60.056C66.4578 61.3467 64.7711 63.092 64.7711 65.292C64.7711 66.436 65.2991 67.2867 66.3551 67.844C67.4111 68.4307 68.7751 68.724 70.4471 68.724C73.1458 68.724 75.3458 68.3133 77.0471 67.492C78.7484 66.6707 79.5991 65.6 79.5991 64.28ZM101.204 59.352C100.5 59.352 99.9578 59.1613 99.5765 58.78C99.1951 58.3693 99.0045 57.8413 99.0045 57.196C99.0045 56.6973 99.1365 56.14 99.4005 55.524L104.416 43.864C104.563 43.5413 104.636 43.2333 104.636 42.94C104.636 42.4707 104.431 42.236 104.02 42.236C103.58 42.236 102.847 42.7933 101.82 43.908C100.823 44.9933 99.8551 46.24 98.9165 47.648L98.1245 47.12C99.9725 44.4507 101.556 42.5147 102.876 41.312C104.226 40.08 105.443 39.464 106.528 39.464C107.262 39.464 107.834 39.6547 108.244 40.036C108.684 40.4173 108.904 40.9307 108.904 41.576C108.904 42.016 108.758 42.6027 108.464 43.336L103.668 54.512C103.492 54.864 103.404 55.172 103.404 55.436C103.404 55.9347 103.668 56.184 104.196 56.184C104.93 56.184 106.088 55.4067 107.672 53.852C109.286 52.2973 110.928 50.2587 112.6 47.736C114.272 45.184 115.636 42.5293 116.692 39.772L120.784 39.332L114.536 55.04C114.36 55.48 114.272 55.8027 114.272 56.008C114.272 56.3893 114.39 56.58 114.624 56.58C115.064 56.58 115.812 56.008 116.868 54.864C117.924 53.6907 118.878 52.4587 119.728 51.168L120.564 51.652C118.658 54.38 117.074 56.3453 115.812 57.548C114.58 58.7507 113.407 59.352 112.292 59.352C111.618 59.352 111.075 59.176 110.664 58.824C110.283 58.4427 110.092 57.9293 110.092 57.284C110.092 56.756 110.224 56.184 110.488 55.568L113.7 47.868H113.568C111.808 50.772 109.814 53.412 107.584 55.788C105.355 58.164 103.228 59.352 101.204 59.352ZM140.833 39.376C141.742 39.376 142.475 39.6693 143.033 40.256C143.59 40.8133 143.869 41.6787 143.869 42.852C143.869 44.9347 143.253 47.2227 142.021 49.716C140.818 52.18 139.263 54.2627 137.357 55.964C135.45 57.636 133.529 58.472 131.593 58.472C129.657 58.472 128.249 58.032 127.369 57.152L123.277 67.316C123.189 67.5507 123.145 67.7413 123.145 67.888C123.145 68.2987 123.438 68.592 124.025 68.768L126.005 69.296L125.697 70H115.577L115.885 69.296L117.557 68.768C118.055 68.6213 118.451 68.416 118.745 68.152C119.038 67.9173 119.273 67.58 119.449 67.14L128.073 45.712C126.518 46.944 124.817 47.9707 122.969 48.792L122.441 47.956C124.171 47.0173 125.594 46.0493 126.709 45.052C127.823 44.0253 128.689 43.0427 129.305 42.104C129.921 41.1653 130.61 39.9773 131.373 38.54C131.461 38.3347 131.622 38.0267 131.857 37.616C132.15 37.1173 132.693 36.868 133.485 36.868C133.866 36.868 134.174 36.9413 134.409 37.088C134.673 37.2053 134.761 37.3813 134.673 37.616C134.585 37.88 134.453 38.2027 134.277 38.584L131.417 45.404H131.593C132.913 43.644 134.438 42.2067 136.169 41.092C137.899 39.948 139.454 39.376 140.833 39.376ZM131.945 57.24C133.177 57.24 134.379 56.5653 135.553 55.216C136.755 53.8667 137.723 52.2093 138.457 50.244C139.219 48.2493 139.601 46.3867 139.601 44.656C139.601 43.0427 138.955 42.236 137.665 42.236C136.902 42.236 136.007 42.676 134.981 43.556C133.983 44.436 133.015 45.58 132.077 46.988C131.138 48.3667 130.375 49.76 129.789 51.168L128.997 53.192C129.525 53.2507 129.935 53.5147 130.229 53.984C130.551 54.424 130.713 55.084 130.713 55.964C130.713 56.404 130.801 56.7267 130.977 56.932C131.153 57.1373 131.475 57.24 131.945 57.24Z" fill="#FF1B43"/>
<path opacity="0.04" d="M11.088 80.396C8.77067 80.396 6.76133 80.1027 5.06 79.516C3.388 78.9293 1.87733 78.064 0.528 76.92C1.232 75.5707 1.78933 74.2653 2.2 73.004C2.64 71.7133 2.96267 70.3053 3.168 68.78L4.664 68.824C4.25333 70.056 4.048 71.332 4.048 72.652C4.048 74.7347 4.73733 76.3333 6.116 77.448C7.524 78.5627 9.31333 79.12 11.484 79.12C12.892 79.12 14.212 78.8707 15.444 78.372C16.676 77.844 17.6587 77.0813 18.392 76.084C19.1547 75.0867 19.536 73.884 19.536 72.476C19.536 71.596 19.3453 70.848 18.964 70.232C18.5827 69.616 18.0107 69.0733 17.248 68.604C16.4853 68.1053 15.3853 67.5187 13.948 66.844C11.8947 65.8467 10.296 64.7907 9.152 63.676C8.03733 62.532 7.48 60.992 7.48 59.056C7.48 57.2373 8.052 55.6387 9.196 54.26C10.34 52.852 11.836 51.7813 13.684 51.048C15.532 50.2853 17.4387 49.904 19.404 49.904C20.5187 49.904 21.6333 50.036 22.748 50.3C23.892 50.5347 24.9187 50.9013 25.828 51.4C25.9747 51.488 26.224 51.6347 26.576 51.84C26.928 52.016 27.2507 52.1627 27.544 52.28C27.8373 52.368 28.1013 52.412 28.336 52.412C28.6587 52.412 29.0253 52.368 29.436 52.28L29.612 52.456C28.8493 53.424 28.3067 54.48 27.984 55.624C27.6907 56.768 27.4853 58.1613 27.368 59.804H26.136C26.1653 59.5693 26.18 59.232 26.18 58.792C26.18 56.3867 25.5053 54.524 24.156 53.204C22.836 51.884 21.0907 51.224 18.92 51.224C17.6293 51.224 16.4413 51.488 15.356 52.016C14.2707 52.5147 13.3907 53.248 12.716 54.216C12.0707 55.184 11.748 56.3133 11.748 57.604C11.748 58.4253 11.9827 59.1293 12.452 59.716C12.9213 60.3027 13.4933 60.8013 14.168 61.212C14.8427 61.5933 15.8253 62.092 17.116 62.708C18.4947 63.3533 19.6387 63.9693 20.548 64.556C21.4573 65.1133 22.2493 65.876 22.924 66.844C23.5987 67.7827 23.936 68.9267 23.936 70.276C23.936 72.4173 23.3347 74.2507 22.132 75.776C20.9293 77.3013 19.3453 78.46 17.38 79.252C15.4147 80.0147 13.3173 80.396 11.088 80.396ZM31.4335 80.352C30.7002 80.352 30.1135 80.1467 29.6735 79.736C29.2335 79.3253 29.0135 78.7827 29.0135 78.108C29.0135 77.756 29.1015 77.36 29.2775 76.92L34.0295 64.864C34.2055 64.4827 34.2935 64.116 34.2935 63.764C34.2935 63.3827 34.1762 63.192 33.9415 63.192C33.5015 63.192 32.7682 63.764 31.7415 64.908C30.7149 66.052 29.7615 67.284 28.8815 68.604L28.0895 68.12C30.0255 65.3333 31.5949 63.3533 32.7975 62.18C34.0295 61.0067 35.2175 60.42 36.3615 60.42C37.0655 60.42 37.6082 60.6107 37.9895 60.992C38.3709 61.344 38.5615 61.8573 38.5615 62.532C38.5615 63.0893 38.4442 63.6467 38.2095 64.204L33.6335 75.688C33.4575 76.128 33.3695 76.48 33.3695 76.744C33.3695 77.008 33.4282 77.2133 33.5455 77.36C33.6629 77.4773 33.8095 77.536 33.9855 77.536C34.3962 77.536 35.1149 76.9787 36.1415 75.864C37.1975 74.7493 38.1655 73.5027 39.0455 72.124L39.8815 72.652C38.0042 75.3507 36.3909 77.316 35.0415 78.548C33.7215 79.7507 32.5189 80.352 31.4335 80.352ZM39.5735 55.624C38.7815 55.624 38.0922 55.3307 37.5055 54.744C36.9189 54.1573 36.6255 53.468 36.6255 52.676C36.6255 51.8547 36.9189 51.1507 37.5055 50.564C38.0922 49.948 38.7815 49.64 39.5735 49.64C40.3949 49.64 41.0989 49.9333 41.6855 50.52C42.3015 51.1067 42.6095 51.8253 42.6095 52.676C42.6095 53.468 42.3015 54.1573 41.6855 54.744C41.0989 55.3307 40.3949 55.624 39.5735 55.624ZM47.9535 64.776C48.1001 64.2773 48.1735 63.94 48.1735 63.764C48.1735 63.3827 48.0561 63.192 47.8215 63.192C47.3815 63.192 46.6335 63.7787 45.5775 64.952C44.5215 66.096 43.5681 67.328 42.7175 68.648L41.9255 68.12C43.8028 65.4213 45.3721 63.4707 46.6335 62.268C47.8948 61.0653 49.0681 60.464 50.1535 60.464C50.8575 60.464 51.4001 60.6547 51.7815 61.036C52.1921 61.388 52.3975 61.8867 52.3975 62.532C52.3975 63.0307 52.2655 63.588 52.0015 64.204L48.7895 71.904H48.9215C50.7108 68.9707 52.7348 66.3307 54.9935 63.984C57.2521 61.608 59.4521 60.42 61.5935 60.42C62.2975 60.42 62.8401 60.6107 63.2215 60.992C63.6321 61.3733 63.8375 61.8867 63.8375 62.532C63.8375 63.0307 63.7055 63.588 63.4415 64.204L58.4255 75.864C58.2788 76.1867 58.2055 76.5093 58.2055 76.832C58.2055 77.3013 58.4108 77.536 58.8215 77.536C59.2615 77.536 59.9801 76.9933 60.9775 75.908C62.0041 74.7933 62.9868 73.532 63.9255 72.124L64.7175 72.652C62.8695 75.3213 61.2708 77.272 59.9215 78.504C58.5721 79.736 57.3695 80.352 56.3135 80.352C55.5801 80.352 54.9935 80.1613 54.5535 79.78C54.1428 79.3987 53.9375 78.8707 53.9375 78.196C53.9375 77.7267 54.0841 77.1253 54.3775 76.392L59.1295 65.26C59.2761 64.9667 59.3495 64.6587 59.3495 64.336C59.3495 63.7493 59.1295 63.456 58.6895 63.456C57.9268 63.456 56.7095 64.248 55.0375 65.832C53.3948 67.3867 51.7081 69.44 49.9775 71.992C48.2468 74.544 46.8535 77.2133 45.7975 80L41.6615 80.484L47.9535 64.776ZM87.8711 56.46C88.4578 56.46 88.8978 56.636 89.1911 56.988C89.5138 57.34 89.6751 57.7947 89.6751 58.352C89.6751 59.056 89.4551 59.804 89.0151 60.596C88.6044 61.388 88.0031 62.048 87.2111 62.576C86.4484 63.104 85.5831 63.368 84.6151 63.368C83.9991 63.368 83.4418 63.2213 82.9431 62.928L82.8551 63.192C83.5591 63.896 83.9111 64.908 83.9111 66.228C83.9111 67.548 83.5444 68.8827 82.8111 70.232C82.0778 71.5813 81.0218 72.7107 79.6431 73.62C78.2644 74.5293 76.6658 74.984 74.8471 74.984C74.5538 74.984 74.3338 74.9693 74.1871 74.94C72.7204 74.9987 71.5178 75.1747 70.5791 75.468C69.6698 75.732 69.2151 76.1133 69.2151 76.612C69.2151 76.876 69.3031 77.096 69.4791 77.272C69.6844 77.448 70.0804 77.6387 70.6671 77.844C71.2831 78.02 72.2071 78.2253 73.4391 78.46C75.5511 77.9907 78.2351 77.5213 81.4911 77.052L81.6231 77.932C79.5111 78.3133 77.7658 78.68 76.3871 79.032C78.9978 79.56 80.8458 80.2053 81.9311 80.968C83.0458 81.7307 83.6031 82.728 83.6031 83.96C83.6031 85.3387 82.9431 86.6 81.6231 87.744C80.3324 88.888 78.5724 89.7827 76.3431 90.428C74.1138 91.0733 71.6791 91.396 69.0391 91.396C66.7804 91.396 64.8738 90.9707 63.3191 90.12C61.7351 89.2987 60.9431 88.1693 60.9431 86.732C60.9431 84.004 63.2458 81.892 67.8511 80.396C66.9418 80.0147 66.2818 79.604 65.8711 79.164C65.4604 78.6947 65.2551 78.1373 65.2551 77.492C65.2551 76.7587 65.8418 76.0987 67.0151 75.512C68.2178 74.9253 69.7871 74.5293 71.7231 74.324C70.8138 73.884 70.0951 73.2827 69.5671 72.52C69.0391 71.728 68.7751 70.7893 68.7751 69.704C68.7751 68.296 69.1271 66.8733 69.8311 65.436C70.5644 63.9987 71.6204 62.8107 72.9991 61.872C74.3778 60.904 76.0204 60.42 77.9271 60.42C78.5431 60.42 79.1151 60.4933 79.6431 60.64C80.1711 60.7573 80.8311 60.9333 81.6231 61.168C81.7991 61.2267 82.1951 61.3587 82.8111 61.564C83.4271 61.7693 83.9844 61.872 84.4831 61.872C84.9818 61.872 85.3778 61.7547 85.6711 61.52C85.9644 61.2853 86.1111 60.9187 86.1111 60.42C86.1111 60.2733 86.0524 60.0387 85.9351 59.716C85.8471 59.364 85.8031 59.1 85.8031 58.924C85.8031 58.132 85.9938 57.5307 86.3751 57.12C86.7858 56.68 87.2844 56.46 87.8711 56.46ZM74.6711 73.664C75.6684 73.664 76.6218 73.2093 77.5311 72.3C78.4404 71.3907 79.1738 70.2613 79.7311 68.912C80.2884 67.5333 80.5671 66.184 80.5671 64.864C80.5671 63.8373 80.3324 62.928 79.8631 62.136C79.4524 61.8133 78.8804 61.652 78.1471 61.652C77.1204 61.652 76.1524 62.136 75.2431 63.104C74.3338 64.0427 73.6004 65.216 73.0431 66.624C72.5151 68.0027 72.2511 69.2787 72.2511 70.452C72.2511 72.5933 73.0578 73.664 74.6711 73.664ZM79.5991 85.28C79.5991 84.7227 79.4231 84.2387 79.0711 83.828C78.7191 83.4467 78.0591 83.08 77.0911 82.728C76.1231 82.4053 74.7004 82.068 72.8231 81.716C71.6204 81.4813 70.6231 81.2613 69.8311 81.056C66.4578 82.3467 64.7711 84.092 64.7711 86.292C64.7711 87.436 65.2991 88.2867 66.3551 88.844C67.4111 89.4307 68.7751 89.724 70.4471 89.724C73.1458 89.724 75.3458 89.3133 77.0471 88.492C78.7484 87.6707 79.5991 86.6 79.5991 85.28ZM101.204 80.352C100.5 80.352 99.9578 80.1613 99.5765 79.78C99.1951 79.3693 99.0045 78.8413 99.0045 78.196C99.0045 77.6973 99.1365 77.14 99.4005 76.524L104.416 64.864C104.563 64.5413 104.636 64.2333 104.636 63.94C104.636 63.4707 104.431 63.236 104.02 63.236C103.58 63.236 102.847 63.7933 101.82 64.908C100.823 65.9933 99.8551 67.24 98.9165 68.648L98.1245 68.12C99.9725 65.4507 101.556 63.5147 102.876 62.312C104.226 61.08 105.443 60.464 106.528 60.464C107.262 60.464 107.834 60.6547 108.244 61.036C108.684 61.4173 108.904 61.9307 108.904 62.576C108.904 63.016 108.758 63.6027 108.464 64.336L103.668 75.512C103.492 75.864 103.404 76.172 103.404 76.436C103.404 76.9347 103.668 77.184 104.196 77.184C104.93 77.184 106.088 76.4067 107.672 74.852C109.286 73.2973 110.928 71.2587 112.6 68.736C114.272 66.184 115.636 63.5293 116.692 60.772L120.784 60.332L114.536 76.04C114.36 76.48 114.272 76.8027 114.272 77.008C114.272 77.3893 114.39 77.58 114.624 77.58C115.064 77.58 115.812 77.008 116.868 75.864C117.924 74.6907 118.878 73.4587 119.728 72.168L120.564 72.652C118.658 75.38 117.074 77.3453 115.812 78.548C114.58 79.7507 113.407 80.352 112.292 80.352C111.618 80.352 111.075 80.176 110.664 79.824C110.283 79.4427 110.092 78.9293 110.092 78.284C110.092 77.756 110.224 77.184 110.488 76.568L113.7 68.868H113.568C111.808 71.772 109.814 74.412 107.584 76.788C105.355 79.164 103.228 80.352 101.204 80.352ZM140.833 60.376C141.742 60.376 142.475 60.6693 143.033 61.256C143.59 61.8133 143.869 62.6787 143.869 63.852C143.869 65.9347 143.253 68.2227 142.021 70.716C140.818 73.18 139.263 75.2627 137.357 76.964C135.45 78.636 133.529 79.472 131.593 79.472C129.657 79.472 128.249 79.032 127.369 78.152L123.277 88.316C123.189 88.5507 123.145 88.7413 123.145 88.888C123.145 89.2987 123.438 89.592 124.025 89.768L126.005 90.296L125.697 91H115.577L115.885 90.296L117.557 89.768C118.055 89.6213 118.451 89.416 118.745 89.152C119.038 88.9173 119.273 88.58 119.449 88.14L128.073 66.712C126.518 67.944 124.817 68.9707 122.969 69.792L122.441 68.956C124.171 68.0173 125.594 67.0493 126.709 66.052C127.823 65.0253 128.689 64.0427 129.305 63.104C129.921 62.1653 130.61 60.9773 131.373 59.54C131.461 59.3347 131.622 59.0267 131.857 58.616C132.15 58.1173 132.693 57.868 133.485 57.868C133.866 57.868 134.174 57.9413 134.409 58.088C134.673 58.2053 134.761 58.3813 134.673 58.616C134.585 58.88 134.453 59.2027 134.277 59.584L131.417 66.404H131.593C132.913 64.644 134.438 63.2067 136.169 62.092C137.899 60.948 139.454 60.376 140.833 60.376ZM131.945 78.24C133.177 78.24 134.379 77.5653 135.553 76.216C136.755 74.8667 137.723 73.2093 138.457 71.244C139.219 69.2493 139.601 67.3867 139.601 65.656C139.601 64.0427 138.955 63.236 137.665 63.236C136.902 63.236 136.007 63.676 134.981 64.556C133.983 65.436 133.015 66.58 132.077 67.988C131.138 69.3667 130.375 70.76 129.789 72.168L128.997 74.192C129.525 74.2507 129.935 74.5147 130.229 74.984C130.551 75.424 130.713 76.084 130.713 76.964C130.713 77.404 130.801 77.7267 130.977 77.932C131.153 78.1373 131.475 78.24 131.945 78.24Z" fill="#FF1B43"/>
<path d="M170.037 27.9996L173 30.7425L170.037 33.4854" stroke="#FF1B43" stroke-width="1.5" stroke-linecap="round"/>
<path d="M173 30.7432H161" stroke="#FF1B43" stroke-width="1.5" stroke-linecap="round"/>
<g opacity="0.1">
<path d="M170.037 45.2565L173 47.9993L170.037 50.7422" stroke="#FF1B43" stroke-width="1.5" stroke-linecap="round"/>
<path d="M173 48H161" stroke="#FF1B43" stroke-width="1.5" stroke-linecap="round"/>
</g>
<g opacity="0.04">
<path d="M170.037 62.5143L173 65.2571L170.037 68" stroke="#FF1B43" stroke-width="1.5" stroke-linecap="round"/>
<path d="M173 65.2578H161" stroke="#FF1B43" stroke-width="1.5" stroke-linecap="round"/>
</g>
</svg>
